# xmcd
#
# Track frame offsets:
#	150
#	14671
#	33875
#	50260
#	66327
#	80351
#	101724
#	117957
#	130906
#	146542
#	163378
#	192846
#
# Disc length: 2835 seconds
#
# Revision: 0
# Processed by: cddbd v1.5.2PL0 Copyright (c) Steve Scherf et al.
# Submitted via: dBpowerAMP V4.0
#
DISCID=a70b110c
DTITLE=Jac Blanc - Die Onbekende
DYEAR=1900
DGENRE=
TTITLE0=glo
TTITLE1=solitaire
TTITLE2=ontrafel
TTITLE3=uiteindelik
TTITLE4=my verbeelding
TTITLE5=eb and vloed (wapens)
TTITLE6=vir ander
TTITLE7=seeheim
TTITLE8=werke van sy hande
TTITLE9=netsowel
TTITLE10=eenvoudt
TTITLE11=DATA
EXTD=
EXTT0=
EXTT1=
EXTT2=
EXTT3=
EXTT4=
EXTT5=
EXTT6=
EXTT7=
EXTT8=
EXTT9=
EXTT10=
EXTT11=
PLAYORDER=
